<?xml version="1.0" encoding="UTF-8"?>
<!DOCTYPE svg PUBLIC "-//W3C//DTD SVG 1.1//EN" "http://www.w3.org/Graphics/SVG/1.1/DTD/svg11.dtd">
<!-- Creator: CorelDRAW -->
<svg xmlns="http://www.w3.org/2000/svg" xml:space="preserve" width="122.222mm" height="135.45mm" version="1.1" style="shape-rendering:geometricPrecision; text-rendering:geometricPrecision; image-rendering:optimizeQuality; fill-rule:evenodd; clip-rule:evenodd"
viewBox="0 0 2787.57 3089.26"
 xmlns:xlink="http://www.w3.org/1999/xlink"
 xmlns:xodm="http://www.corel.com/coreldraw/odm/2003">
 <defs>
  <style type="text/css">
   <![CDATA[
    .fil0 {fill:black}
   ]]>
  </style>
 </defs>
 <g id="Capa_x0020_1">
  <metadata id="CorelCorpID_0Corel-Layer"/>
  <g id="_2936021180848">
   <path class="fil0" d="M530.97 2986.68c0.71,-31.82 23.31,-90.61 32.78,-124.1l45.66 -123.29c8.41,31.48 98.26,112.1 108.61,150.84 -14.83,7.85 -27.59,13.53 -44.34,22.03 -32.15,16.32 -114.97,68.04 -142.71,74.51zm1157.61 -2986.68l36.99 0c49.92,4.19 98.19,25.08 133.13,60.02 68.76,68.76 60.02,127.53 60.02,211.5l168.94 0 0 -66.37c0,-105.03 93.29,-205.15 199.11,-205.15 134.22,0 223.25,91.43 223.25,205.15l0 66.37 205.15 0c24.45,0 46.79,15.91 57.32,33.19 12.24,20.08 15.09,45.98 15.09,75.42l0 2238.5c0,124.96 -89.12,96.54 -247.38,96.54 -343.92,0 -687.84,0 -1031.76,0l-259.73 -0.28c-31.2,1.47 -145.71,68.34 -174.43,85.02l-167.25 92.2c-77.44,38.32 -332.99,197.15 -394.15,197.15 -41.93,0 -78.44,-17.97 -78.44,-66.37 0,-118.65 67.15,-244.6 72.4,-307.72 -100.56,0 -201.12,0 -301.69,0 -113.68,0 -205.15,28.92 -205.15,-96.54l0 -2238.5c0,-49.87 13.97,-108.61 72.4,-108.61l247.38 0 0 -54.3c0,-291.18 422.36,-285.98 422.36,-6.03l0 60.34 168.94 0 0 -84.47c0,-85.53 101.51,-187.05 187.05,-187.05 72.71,0 131.52,11.02 179.31,68.07 56.26,67.15 56,116.74 56,203.45l162.91 0 0 -24.13c0,-163.48 93.75,-239.1 192.22,-247.38zm-1018.83 2485.89c22.62,15.15 153.11,186.06 182.4,221.86 14.11,17.24 54.28,62.34 58.95,79.83 -26.61,6.2 -79.11,38.69 -108.61,54.3 -4.73,-17.71 -45.38,-64.22 -58.99,-79.78l-92.19 -113.12c-15.11,-18.77 -19.79,-20.41 -12.41,-48.28 8.95,-33.8 27.92,-79.53 30.85,-114.81zm102.57 -355.99c12.87,9.43 36.98,43.45 49.66,58.95 18.4,22.49 32.52,40.77 51.02,63.62l150.84 187.04c18.49,22.86 33.24,41.45 50.96,63.68l101.78 127.5c-12.2,18.23 -164.02,98.61 -181.01,102.57 -14.12,-10.35 -37.77,-45.1 -52.75,-61.89 -63.32,-70.97 -148.41,-189.65 -214.75,-267.98 -30.69,-36.25 -21.47,-35.37 -7.45,-83.84 9.64,-33.36 18.02,-63.54 26.86,-93.83 7.93,-27.21 22.5,-67.69 24.85,-95.83zm126.71 -422.36c21.18,5.66 10.53,3.36 26.24,16 10.62,8.55 16.58,13.32 26.68,21.59 100.17,82.04 740.33,582.51 749.57,608.02l-253.42 132.74c-5.06,-18.96 -14.71,-24.58 -26.73,-39.65 -12.14,-15.23 -20.3,-25.6 -32.22,-40.18l-128.89 -160.73c-28.45,-35.71 -42.54,-67.16 -77.65,-67.16 -24.72,0 -78.26,24.68 -26.13,86.47l213.18 269.52 -108.61 54.3c-55.38,-82.7 -452.53,-554.84 -452.53,-567.17 0,-13.49 13.65,-54.3 17.39,-67.08 5.97,-20.42 17.1,-51.08 18.81,-71.69 42.83,28.68 153.1,210.08 196.37,219.94 35.56,8.11 67.53,-31.21 49.81,-67.32 -7.83,-15.96 -18.62,-24.84 -28.96,-37.99 -27.14,-34.5 -178.61,-212.25 -179.11,-234.49 -0.22,-9.83 11.43,-45.2 16.19,-55.12zm-802.48 -850.75l2594.49 0 0 114.64 -1194.67 0c-75.3,0 -66.76,96.54 0,96.54l1194.67 0 0 1556.7 -1291.21 0 190.53 -105.12c18.49,-11.07 26.99,-15.52 46.87,-25.53l96.43 -54.41c19.1,-10.28 34.78,-16.84 52.32,-26.12 52.73,35.31 43.99,54.3 96.54,54.3 12.18,0 36.2,-16.45 36.2,-42.24 0,-35.02 -33.78,-52.38 -56.2,-70.51l-920.4 -738.86c-24.42,-19.89 -45,-35.9 -70.66,-56.05 -32.04,-25.16 -53.93,-51.7 -81.05,-51.7 -36.15,0 -78,41.74 -19.68,92.08 14.91,12.87 31.7,29.78 49.85,34.63l-283.59 989.53 -440.46 0 0 -1556.7 1170.54 0c87.69,0 72.22,-96.54 12.07,-96.54l-1182.61 0 0 -114.64zm905.06 -446.49l0 -42.23 494.76 0c0,111.11 21.19,198.24 116.47,245.55 41.96,20.84 142.98,54.01 142.98,-22.31 0,-62.59 -64.15,-38.33 -102.56,-60.35 -66.82,-38.29 -60.35,-103.1 -60.35,-162.9l494.76 0c0,48.78 -2.98,96.65 16.05,140.82 58.09,134.79 243.4,169.31 243.4,82.42 0,-17.08 -18.07,-36.75 -29.96,-42.45 -3.59,-1.72 -132.95,-12.02 -132.95,-102.36l0 -78.44 506.83 0 0 392.19 -2594.49 0 0 -392.19 223.25 0c0,78.08 2.34,150.33 58.85,206.63 65.27,65.02 200.6,96.03 200.6,16.62 0,-78.22 -162.91,-16.86 -162.91,-156.88l0 -66.37 494.76 0 0 72.4c0,181.61 253.42,245.08 253.42,162.91 0,-86.44 -46.34,-39.28 -108.59,-78.46 -32.7,-20.58 -54.32,-61.27 -54.32,-114.62zm1182.61 -211.18c0,-57.74 57.55,-108.61 114.64,-108.61 57.13,0 114.64,49.5 114.64,108.61l0 72.4 -229.28 0 0 -72.4zm-591.3 6.03c0,-142.64 235.31,-162.24 235.31,18.1l0 48.27 -235.31 0 0 -66.37zm-591.3 18.1c0,-38.89 12.87,-69.5 29.97,-90.7 8.4,-10.42 20.17,-18.85 34.2,-26.14 85.43,-44.41 171.15,21.7 171.15,98.74l0 66.37 -235.31 0 0 -48.27zm-585.27 -30.17c0,-25.57 22.87,-57.55 37.38,-71.23 73.53,-69.31 191.9,-11.45 191.9,77.26l0 72.4 -229.28 0 0 -78.44z"/>
   <path class="fil0" d="M1761.84 2117.83c0,31.19 40.69,86.91 95.75,11.28 44.81,-61.55 69.95,-93.47 136.02,-141.53 137.24,-99.84 256.96,-40.92 256.96,-117.13 0,-8.79 -8.4,-24.91 -12.43,-29.81 -6.41,-7.78 2.18,-1.35 -13.43,-10.71 -62.54,-37.47 -239.07,47.22 -290.53,86.15 -39.42,29.83 -65.62,53.05 -98.51,88.54 -19.73,21.29 -73.84,84.83 -73.84,113.21z"/>
   <path class="fil0" d="M1218.81 1683.4c0,25.82 18.6,48.27 42.23,48.27 53.36,0 172.75,-184.75 201.75,-232.67 17.29,-28.57 45.97,-66.89 20.38,-97.85 -62.32,-75.43 -107.11,86.53 -202.48,193.31 -14.13,15.82 -18.02,23.42 -33.3,39.11 -10.57,10.85 -28.59,31.78 -28.59,49.84z"/>
   <path class="fil0" d="M1550.66 1948.89c0,34.07 21.95,48.27 54.3,48.27 24.84,0 67.47,-67.54 93.03,-100.05 25.13,-31.97 98.99,-111.12 130.44,-135.05 48.9,-37.19 17.38,-90.73 -24.36,-90.73 -29.83,0 -121.93,99.18 -141.33,124.15 -12.07,15.53 -18.96,19.76 -31.13,35.24 -12.23,15.56 -17.46,21.37 -29.3,37.07 -11.8,15.65 -51.66,63.55 -51.66,81.08z"/>
   <path class="fil0" d="M1544.63 1611c0,76.48 65.75,58.8 84.78,36.51 8.65,-10.14 16.59,-21.34 26.44,-33.9l101.86 -127.42c23.24,-28.71 46.37,-48.05 46.37,-74.3 0,-25.82 -18.6,-48.27 -42.23,-48.27 -39.1,0 -79.43,68.51 -116.03,113.25 -16.42,20.07 -101.18,119.35 -101.18,134.13z"/>
   <path class="fil0" d="M1074 1490.33c0,32.48 54.06,92.36 102.66,-5.95 125.01,-252.94 -53.57,-303.69 -54.77,-187.51 -1.65,160.05 -47.89,140.11 -47.89,193.46z"/>
  </g>
 </g>
</svg>
