<?xml version="1.0" encoding="UTF-8"?>
<!DOCTYPE svg PUBLIC "-//W3C//DTD SVG 1.1//EN" "http://www.w3.org/Graphics/SVG/1.1/DTD/svg11.dtd">
<!-- Creator: CorelDRAW -->
<svg xmlns="http://www.w3.org/2000/svg" xml:space="preserve" width="127.513mm" height="135.45mm" version="1.1" style="shape-rendering:geometricPrecision; text-rendering:geometricPrecision; image-rendering:optimizeQuality; fill-rule:evenodd; clip-rule:evenodd"
viewBox="0 0 5425.19 5762.86"
 xmlns:xlink="http://www.w3.org/1999/xlink"
 xmlns:xodm="http://www.corel.com/coreldraw/odm/2003">
 <defs>
  <style type="text/css">
   <![CDATA[
    .fil0 {fill:black}
   ]]>
  </style>
 </defs>
 <g id="Capa_x0020_1">
  <metadata id="CorelCorpID_0Corel-Layer"/>
  <g id="_2936756736352">
   <path class="fil0" d="M5110.04 5425.19c-497.19,0 -438.97,61.65 -438.97,-483.99 0,-191.96 175.94,-146.32 438.97,-146.32l32.17 316.85c5.34,91.17 -32.17,265.17 -32.17,313.46zm-4794.88 -630.31c492.12,0 438.97,-63.81 438.97,483.99 0,191.96 -175.94,146.32 -438.97,146.32 0,-54.97 -16.31,-101.4 -20.98,-147.85 -27.12,-269.42 20.98,-345.94 20.98,-482.46zm4310.89 -562.78c-56.04,13.05 -148.92,66.08 -204.18,88.47 -65.57,26.56 -139.45,61.19 -200.9,91.75 -35.51,17.66 -395.24,179.97 -405.32,179.97 -41.34,0 -731.93,-341.9 -810.4,-360.18l543.08 -548.71c111.04,-111.04 65.19,-117.29 240.41,-77.21 193.17,44.19 426.59,72.84 569.69,161.93 123.87,77.11 267.62,266.67 267.62,463.99zm472.73 -326.41l-135.07 0 0 -1103.05c90.49,0 281.39,-21.46 281.39,123.81l0 855.42c0,72.12 -69.45,123.81 -146.32,123.81zm-4918.69 -123.81l0 -855.42c0,-145.27 190.9,-123.81 281.39,-123.81l0 1103.05c-90.49,0 -281.39,21.46 -281.39,-123.81zm4445.96 -22.51l0 -956.72 157.58 0 0 1103.05c-90.89,0 -66.07,0.24 -106.48,-62.35 -14.31,-22.16 -51.09,-59 -51.09,-83.97zm-3939.46 146.32l-45.02 0 0 -1103.05 157.58 0 0 956.72c0,6.33 -72.08,146.32 -112.56,146.32zm1291.66 -368.7c27.3,-14.52 53.79,-18.27 82.52,-24.26 40.56,-8.45 53.34,-15.18 89.05,-23.5 130.57,87.44 460.02,506.5 551.53,506.5 90.91,0 108.18,-46.28 171.64,-109.74 81.92,-81.92 350.8,-362.21 402.39,-396.76l168.84 45.02 -610.54 616.32c-66.79,-28.17 -177.65,-29.52 -244.88,2.74l-610.54 -616.32zm303.86 -168.79c38.34,-69.99 47.8,-80.38 47.8,-182.86 204.72,47.69 146.46,67.53 416.46,67.53 175.06,0 219.42,-37.36 348.92,-67.53 0,102.49 9.46,112.88 45.02,180.09l-424.93 430.49 -433.27 -427.71zm1972.51 -565.55l191.34 0 0 810.4c-76.75,-40.61 -221.12,-103.8 -326.41,-112.56 23.92,-45.21 37.33,-50.8 65.52,-92.06 187.34,-274.23 89.36,-451.34 69.55,-605.79zm-3129.05 236.37c0,277.41 124.87,357.12 180.09,461.48 -148.56,12.36 -304.46,106.69 -326.41,112.56l0 -810.4 191.35 0c-5.12,61.46 -45.02,122.45 -45.02,236.37zm720.36 -855.42l0 -483.99 1733.36 0c0,280.95 30.22,597.74 -70.64,852.32 -37.73,95.24 -107.8,198.76 -174,264.96 -215.87,215.88 -505.84,307.88 -810.79,242.03 -387.97,-83.78 -677.94,-429.6 -677.94,-875.33zm2104.79 416.46c0,128.17 42.26,100.46 100.99,202.91 211.58,369.05 -117.34,641.26 -146.01,641.26 -57.56,0 -140.88,-21.78 -191.35,-33.76 -363.07,-86.19 -450.22,-37.23 -450.22,-292.65 0,-38.72 96.92,-79.74 171.82,-154.59 155.51,-155.41 312.17,-424.24 312.17,-667.07l0 -146.32c140.94,0 286.99,-74.6 315.16,-180.09l22.51 0c7.84,94.2 92.67,242.02 -33.43,439.31 -38.21,59.79 -101.64,102.03 -101.64,191.01zm-2645.06 -405.2c0,-65.76 4.25,-198.25 56.28,-236.37 14.63,54.78 70.69,105.44 112.14,135.48 49.46,35.85 116.81,55.86 203.02,55.86 0,252.03 19.63,413.6 166.54,632.6 87.63,130.63 123.81,163.22 230.72,253.26 75.28,63.41 86.73,22.75 86.73,127.14 0,181.4 -111,170.73 -256.65,204.83 -74.07,17.34 -325.09,76.55 -384.92,76.55 -2.5,0 -68.82,-51.34 -76.28,-58.79 -19.5,-19.5 -46.07,-57.24 -63.57,-82.76 -118.14,-172.32 -94.41,-417.04 47.08,-570.28 123.43,-133.69 -15.96,-265.77 -49.39,-316.6 -36.39,-55.33 -71.69,-135.85 -71.69,-220.95zm202.6 -348.93c0,-126.49 72.83,-146.32 168.83,-146.32l0 270.13c-81.74,0 -168.83,-30.61 -168.83,-123.81zm2284.88 123.81l-45.02 0 0 -270.13 56.28 0c72.32,0 118.12,74.23 117.26,133.39 -1.13,77.86 -56.54,136.74 -128.51,136.74zm-1947.22 -1350.67c0,-258.87 201.86,-450.22 461.48,-450.22l810.4 0c274.46,0 461.48,195.4 461.48,472.73l0 483.99c-117.42,0 -247.62,-22.79 -247.62,90.04 0,124.33 182.79,90.04 303.9,90.04 354.66,0 326.41,-35.53 326.41,146.32 0,34.56 -10.42,67.53 -45.02,67.53l-2408.7 0c-57.26,0 -45.02,-90.24 -45.02,-146.32 0,-91.84 67.02,-67.84 157.56,-67.55l1351.16 0.49c207.9,1.43 146.64,-180.57 44.55,-180.57l-1170.58 0 0 -506.5zm-168.84 -67.53l0 574.03 -168.83 0c-110.57,0 -213.86,91.33 -213.86,202.6 0,295.1 -10.98,192.35 78.79,326.41 -51.15,76.38 -247.62,197.44 -247.62,506.5 0,390.5 287.58,453.81 125.81,462.34 -251.59,13.26 -783.69,-26 -992.97,9.93 -141.36,24.26 -258.4,150.83 -258.4,315.63l0 810.4c0,143.68 87.42,248.58 187.7,296.29 89.69,42.67 319.15,30.13 453.87,30.13 -3.64,43.73 -10.16,29.32 -11.25,78.79 -256.84,21.37 -213.86,267.42 -213.86,461.48 -134.22,0 -232.72,-20.57 -272.83,154.88 -34.78,152.13 -99.56,813.1 149.02,813.1l123.81 0c0,59.93 -10.85,168.83 90.04,168.83 104.65,0 90.04,-100.22 90.04,-168.83l67.53 0c128.29,0 258.88,-130.6 258.88,-258.88l0 -450.22c0,-128.29 -130.6,-258.88 -258.88,-258.88l-67.53 0c0,-388.91 -75.69,-321.06 453.45,-93.28l469.51 217.09 -0.03 821.69c-0.4,98.85 -8.39,191.31 90.08,191.31 98.58,0 90.51,-81.81 90.08,-180.06l-0.03 -832.95c152.46,-80.68 308.33,-102.68 300.67,-201.05 -15.33,-196.91 -320.68,43.47 -390.71,43.47l-606.22 -271.71c-62.79,-25.42 -133.79,-72.07 -204.18,-88.47 0,-221.74 166.66,-415.65 318.62,-491.78 98.48,-49.33 195.95,-61.71 316.09,-89.11l333.27 -71.93 655.62 650.03c-47.89,14.2 -227.9,83.18 -227.9,137.86 0,242.16 258.71,5.61 427.71,-33.76l0 1136.81c0,126.42 -33.64,292.65 90.04,292.65 119.75,0 90.04,-159.39 90.04,-281.39l0 -1148.07c33.88,7.89 83.95,30.57 112.68,44.89 39.06,19.47 74.07,32.08 116.31,52.53l578.16 266.01c46.52,19.89 75.47,31.68 115.81,53.03l-0.01 821.67c-0.26,101.37 -12.43,191.33 90.06,191.33 94.62,0 90.68,-84.45 90.12,-180.01l-0.08 -832.99c37.15,-19.66 75.89,-39.21 114.13,-54.7l579.84 -264.33c42.66,-20.64 76.89,-32.5 116.29,-52.57 140.36,-71.52 112.7,-44.84 112.7,247.8l-67.53 0c-128.29,0 -258.88,130.59 -258.88,258.88l0 450.22c0,128.29 130.59,258.88 258.88,258.88l67.53 0c0,68.61 -14.6,168.83 90.04,168.83 100.89,0 90.04,-108.9 90.04,-168.83 134.22,0 232.72,20.57 272.83,-154.89 34.78,-152.13 99.56,-813.1 -149.02,-813.1l-123.81 0c0,-194.06 42.98,-440.11 -213.85,-461.48 -1.1,-49.46 -7.62,-35.06 -11.26,-78.79 134.71,0 364.18,12.54 453.87,-30.13 100.28,-47.7 187.71,-152.6 187.71,-296.29l0 -810.4c0,-416.53 -521.05,-326.41 -799.15,-326.41l-417.21 0.57c-58.87,0.55 -107.14,11.33 -71.69,-36.39l59.12 -78.81c20.44,-31.77 34.74,-58.45 50.53,-95.79 93.92,-222.17 51.54,-486.57 -101.99,-659.02 -32.29,-36.27 -66.83,-59.76 -92.8,-98.55 93.55,-139.7 78.79,-53.24 78.79,-326.41 0,-111.27 -103.29,-202.6 -213.85,-202.6l-168.84 0 0 -551.52c0,-294.13 -279.91,-574.04 -574.03,-574.04l-922.96 0c-164.64,0 -306.38,86.42 -391.25,171.52 -90.39,90.62 -182.78,237.47 -182.78,380z"/>
   <path class="fil0" d="M2442.46 2611.3c0,92.74 194.56,134.03 270.13,134.03 75.57,0 270.13,-41.29 270.13,-134.03 0,-151.12 -168.03,-63.34 -173.78,-61.22 -144.27,53.29 -220.56,-28.83 -276.45,-28.83 -54.45,0 -90.04,35.6 -90.04,90.04z"/>
   <path class="fil0" d="M2161.07 1902.2l0 135.07c0,170.25 180.09,140.15 180.09,22.51 0,-136.47 25.47,-258.88 -90.04,-258.88 -58.08,0 -90.04,46.86 -90.04,101.3z"/>
   <path class="fil0" d="M3084.03 1890.94l0 168.84c0,117.64 180.09,147.74 180.09,-22.51 0,-140.43 22.99,-236.37 -112.56,-236.37 -36.47,0 -67.53,48.91 -67.53,90.04z"/>
  </g>
 </g>
</svg>
