<?xml version="1.0" encoding="UTF-8"?>
<!DOCTYPE svg PUBLIC "-//W3C//DTD SVG 1.1//EN" "http://www.w3.org/Graphics/SVG/1.1/DTD/svg11.dtd">
<!-- Creator: CorelDRAW -->
<svg xmlns="http://www.w3.org/2000/svg" xml:space="preserve" width="81.503mm" height="131.812mm" version="1.1" style="shape-rendering:geometricPrecision; text-rendering:geometricPrecision; image-rendering:optimizeQuality; fill-rule:evenodd; clip-rule:evenodd"
viewBox="0 0 1289.99 2086.25"
 xmlns:xlink="http://www.w3.org/1999/xlink"
 xmlns:xodm="http://www.corel.com/coreldraw/odm/2003">
 <defs>
  <style type="text/css">
   <![CDATA[
    .fil0 {fill:black}
   ]]>
  </style>
 </defs>
 <g id="Capa_x0020_1">
  <metadata id="CorelCorpID_0Corel-Layer"/>
  <g id="_2936754807200">
   <path class="fil0" d="M376.94 2006.67l0 -301.56c0,-22.85 30.98,-16.89 54.43,-16.77 112.81,0.6 104.79,10.73 129.03,-51.06 4.3,-10.95 4.42,-20.12 17.57,-20.12 169.56,0 137.93,-12.13 161.39,43.83 15.93,37.99 39.46,27.59 115.04,27.36 23.03,-0.07 58.63,-6.95 58.63,16.76l0 301.56c0,9.65 -2.92,12.56 -12.57,12.56l-510.97 0c-9.65,0 -12.57,-2.91 -12.57,-12.56zm519.35 -829.28c66.21,0 119.87,-5.85 181.95,19.08 23.38,9.39 53.56,27.69 70.4,42.69 32.53,28.97 74.34,88.5 74.34,147.64l0 515.16 -242.92 0 0 -209.41c0,-31.08 -34.67,-70.11 -83.77,-71.2l0 -443.96zm-586.36 515.16l0 209.41 -242.92 0 0 -515.16c0,-111.3 120.47,-209.41 234.54,-209.41l92.14 0 0 443.96c-22.82,0.51 -42.44,8.09 -55.65,19.74 -11.1,9.78 -28.12,32.86 -28.12,51.46zm175.91 -71.2l-25.13 0 0 -443.96c31.89,2.65 154.95,125.65 184.28,125.65 16.46,0 77.25,-51.68 92.14,-62.82 23.23,-17.38 73.3,-61.26 92.14,-62.82l0 443.96c-43.07,0 -32.61,1.94 -42.12,-20.71 -11.71,-27.89 -30.24,-50.49 -66.78,-50.49l-150.78 0c-24.71,0 -39.25,9.87 -51.45,23.94 -22.98,26.5 -13.1,47.26 -32.31,47.26zm142.4 -586.36c42.03,0 45.21,3.24 81.61,-11.26 24.57,-9.79 21.18,-3.08 24.43,22.44 6.8,53.39 22.58,70.35 27.98,93.53 -14.12,3.77 -45.76,32.11 -58.59,41.93 -17.19,13.15 -39.58,31.73 -58.68,41.84 -30.37,-16.07 -98.41,-78.73 -117.27,-83.77 5.38,-23.1 19.98,-37.15 27.5,-89.8 3.39,-23.75 -2.27,-36.11 21.82,-27.5 18.09,6.46 24.56,12.59 51.2,12.59zm364.38 -464.9l0 -92.14 12.56 0c20.26,0 33.51,13.25 33.51,33.51l0 25.13c0,26.93 -21.89,31.49 -46.07,33.51zm-741.32 -33.51c0,-23.2 -4.54,-58.64 33.51,-58.64 20.69,0 12.56,51.11 12.56,92.14 -24.18,-2.01 -46.07,-6.57 -46.07,-33.51zm108.89 -142.4c40.74,-21.55 87.16,-72.02 137.56,-41.23 96.33,58.84 247.92,90.85 364.54,70.07 18.96,-3.38 38.71,-11.63 59.12,-12.08 0,176.38 21.96,298.98 -86.63,432.72 -24.3,29.93 -47.43,53.1 -78.45,76.51 -15.23,11.49 -29.37,19.28 -46.08,29.31 -74.93,45.02 -153.88,-2.86 -208.81,-55.76 -57.51,-55.4 -100.66,-116.75 -121.24,-197.07 -19.37,-75.62 -15.94,-119.78 -15.84,-197.76 0.05,-40.75 -4.19,-64.57 -4.19,-104.71zm490.03 -154.97c86.95,0 120.21,-24.11 184.28,-67.01 0,61.31 -6.9,102.18 -67.7,141.71 -118.37,76.96 -312.6,50.17 -427.86,-14.72 -36.15,-20.35 -52.78,-33.33 -104.92,-19.66 -65.89,17.27 -86.62,57.49 -80.82,12.29 2.84,-22.17 2.71,-40.34 8.52,-59.46 20.47,-67.35 52.16,-9.68 87.65,-42.18 59.37,-54.36 115.03,-122.69 241.7,-122.69 71.61,0 181.03,58.12 209.41,100.52 -14.45,0.32 -23.83,2.85 -41.71,4.36 -60.5,5.12 -44.6,66.84 -8.55,66.84zm-565.42 54.45c0,43.05 8.38,74.22 8.38,117.27 -64.61,0 -108.89,37.88 -108.89,92.14 0,39.4 -1.97,83.01 33.29,109.12 22.85,16.92 51.18,21.45 83.99,29.1 0.63,28.4 15.41,81.63 23.94,105.89 24.1,68.52 75.72,151.1 132.25,198.62 5.69,4.78 36.46,26.81 36.46,30.55 0,53.3 -10.79,99.02 -29.32,134.02 -159.6,0 -267.63,-14.71 -375.96,84.75 -9.16,8.41 -14.87,14.94 -21.96,24.11 -34.76,44.96 -66.98,93.78 -66.98,163.38l0 561.23c0,10.09 15.05,25.13 25.13,25.13l284.8 0 0 41.88c0,39.27 36.12,75.39 75.39,75.39l519.34 0c38.63,0 75.39,-36.76 75.39,-75.39l0 -41.88 284.8 0c10.09,0 25.13,-15.04 25.13,-25.13l0 -561.23c0,-69.6 -32.22,-118.42 -66.98,-163.38 -20.12,-26.03 -46.96,-46.18 -75.18,-63.04 -106.24,-63.49 -194.61,-45.82 -322.75,-45.82 -18.52,-35.01 -29.32,-80.73 -29.32,-134.02l68.14 -61.69c10.41,-10.81 20.45,-24.36 30.03,-36.98 10.6,-13.97 18.92,-25.82 27.29,-39.73 29.44,-48.95 65.86,-136.66 67.2,-196.66 96.35,-22.45 117.27,-33.29 117.27,-138.21 0,-59.04 -49.1,-92.14 -113.08,-92.14 0,-56.4 1.33,-24.41 40.92,-63.78 16.81,-16.71 26.36,-24.97 38.49,-45.28 40.49,-67.8 33.67,-119.53 33.67,-200.87 0,-34.71 -14.05,-46.07 -41.88,-46.07 -16,0 -33.77,32.72 -44.97,42.98 -10.26,9.39 -37.78,32.97 -51.36,36.59 -32.78,-21.95 -49.26,-50.27 -114.37,-86.66 -105.49,-58.96 -201.75,-63.26 -312.82,-13.84 -26.11,11.62 -54.14,31 -76.38,49.27 -63.76,52.4 -28.22,41.36 -81.75,48.09 -69.82,8.78 -97.38,90.78 -97.38,162.3z"/>
   <path class="fil0" d="M582.17 1855.89c0,-56.83 67.3,-81.72 105.57,-46.93 29.05,26.4 34.91,105.57 -51.12,105.57 -30.02,0 -54.45,-31.92 -54.45,-58.63zm-67.01 0c0,36.63 18.33,69.24 36.55,89.1 73.31,79.93 223.12,27.67 223.12,-84.91 0,-76.3 -62.21,-134.03 -117.27,-134.03 -49.48,0 -67.25,2.28 -105.84,40.75 -21.23,21.16 -36.56,48.7 -36.56,89.09z"/>
   <path class="fil0" d="M423.01 1747c0,39.66 46.07,39.66 46.07,0 0,-25.31 -46.07,-25.31 -46.07,0z"/>
  </g>
 </g>
</svg>
