<?xml version="1.0" encoding="UTF-8"?>
<!DOCTYPE svg PUBLIC "-//W3C//DTD SVG 1.1//EN" "http://www.w3.org/Graphics/SVG/1.1/DTD/svg11.dtd">
<!-- Creator: CorelDRAW -->
<svg xmlns="http://www.w3.org/2000/svg" xml:space="preserve" width="114.461mm" height="135.485mm" version="1.1" style="shape-rendering:geometricPrecision; text-rendering:geometricPrecision; image-rendering:optimizeQuality; fill-rule:evenodd; clip-rule:evenodd"
viewBox="0 0 2481.46 2937.26"
 xmlns:xlink="http://www.w3.org/1999/xlink"
 xmlns:xodm="http://www.corel.com/coreldraw/odm/2003">
 <defs>
  <style type="text/css">
   <![CDATA[
    .fil0 {fill:black}
   ]]>
  </style>
 </defs>
 <g id="Capa_x0020_1">
  <metadata id="CorelCorpID_0Corel-Layer"/>
  <g id="_2936539132368">
   <path class="fil0" d="M1038.37 2805.31c0,-91.01 97.53,-71.85 97.53,-17.21 0,81.94 -97.53,58.61 -97.53,17.21zm61.24 131.95l-30.38 0c-20.85,-2.27 -41.55,-9.29 -60.59,-21.91 -57.42,-38.07 -67.8,-84.99 -67.8,-155.93l-111.41 -60.7c-145.25,-94.2 -17.36,-223.02 63.54,-371.53 45.77,-84.01 93.92,-198.82 179.81,-198.82 53.52,0 47.67,4.44 88.03,26.7l181.6 99.51c86.9,-164.24 121.29,-154.57 -29.06,-165.99 -269.74,-20.49 -415.65,-99.1 -607.74,-247.05 -31.23,-24.06 -53.29,-58.4 -86.04,-80.33 -23.69,44.77 -45.51,85.09 -70.68,130.11 -7.32,13.09 -10.07,20.98 -17.26,34.37 -62.95,117.29 -91.47,97.48 -149.2,-19.13 -10.26,-20.73 -17.47,-37.33 -29.17,-56.88 -12.6,-21.05 -18.3,-34.66 -30.16,-55.89l-91.78 -166.38c-51.56,-103.53 -93.19,-168.02 -145.34,-284.92 -53.99,-121.02 -85.98,-166.34 -85.98,-304.13 0,-197.68 201.85,-424.53 430.26,-424.53 9.45,-40.57 78.26,-145.22 106.6,-185.98 108.27,-155.72 301.29,-300.02 483.56,-365.49 152.27,-54.7 238.21,-62.37 402.31,-62.37 204.02,0 429.4,87.71 576.15,198.32 33.28,25.08 115,90.74 137.69,120.47 33.04,43.28 56.14,52.78 115.74,142.42 189.14,284.47 226.84,603.39 119.19,929.29 -20.08,60.78 -62.84,147.17 -96.39,201.93 -13.98,22.8 -25.66,36.96 -37.74,59.78 31.64,47.25 62.4,90.75 95.23,139.98 26.08,39.13 133.16,177.26 141.75,202.5 32.54,95.63 -52.41,191.05 -133.71,191.05 -62.21,0 -99.24,-48.89 -120.47,-63.1 0,32.56 -0.24,65.18 -0.2,97.72 0.05,36.91 6.24,51.31 6.01,91.52 -0.33,57.05 -4.31,134.22 0.23,189.09 5.63,68.04 14.45,114.89 -17.66,166.52 -77.29,124.28 -254.13,67.04 -263.68,-57.28 -5.85,-76.14 -0.06,-179.01 -0.06,-258.09l-11.47 0c0,67.48 7.25,196.26 -2.11,256.05 -24.81,158.52 -210.33,163.85 -267.4,53.62 -34.66,-66.95 -11.2,-195.04 -11.55,-263.74l5.7 -275.41c-26.13,17.49 -34.31,33.89 -70.48,50 -42.9,19.1 -50.26,7.37 -95.89,7.37 -4.63,19.87 -126.13,226.77 -146.65,260.66l-111.5 192.55c-11.58,21.4 -22.62,40.81 -34.42,63.11 82.38,123.02 -2.3,230.59 -99.39,240.95zm13.34 -286.84c-164.91,-13.72 -48.34,78.42 -203.3,-14.7 -26.11,-15.69 -36.61,-21.67 -54.86,-42.67 8.72,-37.42 135.9,-242.23 164.4,-294.55 51.87,-95.22 47.27,-87.82 120.47,-47.69l151.13 84.08c-5.66,24.28 -159.02,287.41 -177.84,315.53zm424.52 -562.21c-38.93,0 -45.89,-27.51 -45.89,-57.37 0,-12.54 66.95,-94.77 78.74,-110.58 44.14,-59.17 202.87,-320.28 248.26,-325.42 17.87,-2.02 57.63,51.63 126.21,51.63 130.98,0 49.82,-189.18 282.25,159.49 27.05,40.57 52.05,77.18 79.21,115.84 18.72,26.65 80.28,97.83 80.28,114.77 0,29.27 -40.69,85.68 -93.28,24.44 -40.64,-47.32 -83.32,-121.97 -118.98,-121.97 -66.89,0 -51.63,59.56 -51.63,131.95 0,65.29 5.88,110.91 5.74,172.1l5.73 361.43c0,26.84 -29.41,34.42 -51.63,34.42 -58.14,0 -40.16,-94.61 -40.16,-195.05 0,-215.19 22.46,-189.32 -160.63,-189.32 -63.46,0 -45.89,95.99 -45.89,183.58 0,154.58 19.95,200.79 -57.37,200.79 -8.93,0 -18.74,-7.19 -23.11,-11.31 -15.17,-14.29 -11.31,-28.69 -11.31,-57.53 0,-119.48 5.75,-223.85 5.74,-338.47 -0.01,-63.53 5.81,-105 5.74,-166.36 -0.08,-68.68 11.34,-126.21 -51.63,-126.21 -27.05,0 -33.24,13.69 -45.26,29.32l-72.71 87.92c-13.11,17.18 -20.22,31.92 -48.4,31.92zm-682.68 -252.42c-55.5,-37.16 -148.89,-108.84 -183.58,-160.63 3.26,-13.98 164.48,-319.06 203.31,-416.27 9.36,-23.44 15.7,-45.85 26.16,-65.62l297.55 58.14c56.52,9.38 258.93,46.7 258.93,96.76 0,46.8 -14.3,64.51 -47.17,101.99 -73.14,83.39 -123.38,121.93 -212.62,188.95 -101.94,76.56 -145.74,95.4 -252.7,148.88l-89.88 47.81zm1084.26 -768.74c217.7,0 202.79,346.14 -33.58,309.22 -126.4,-19.74 -174.72,-203.03 -57.27,-279.6 24.73,-16.12 51.38,-29.62 90.85,-29.62zm-1480.1 785.94l-99.95 -186.89c-10.49,-17.57 -14.76,-25.67 -24.27,-44.57 -63.92,-126.96 -242.93,-426.94 -242.93,-548.75 0,-321.15 398.23,-498.35 636.22,-251.85 61.65,63.86 103.83,160.94 103.83,251.85 0,110.52 -159.95,387.53 -216.07,501.04l-156.83 279.17zm981 -1072.79c213.43,0 520.05,-103.26 751.52,-103.26 32.73,0 39.68,5.74 74.58,5.74 2.13,25.63 63.1,158.77 63.1,275.37 -60.17,14.02 -141.56,31.81 -194.96,63.2 -8.16,4.8 -0.28,-0.57 -10.46,6.76 -5.67,4.08 -8.92,7.17 -12.59,10.36 -86.25,-57.76 -81.52,-63.1 -195.05,-63.1 -62.19,0 -126.85,38.16 -159.37,70.11 -179.78,176.62 7.39,518.32 277.54,409.49 26.38,-10.63 59.18,-31.49 77.74,-48.47 74.49,-68.2 104.19,-192.48 50.77,-293.44 37.96,-20.09 120.25,-53.05 172.1,-57.37 0,110 -18.75,202.93 -46.6,286.14 -35.68,106.61 -106.63,223.93 -108.3,230.18 -38.14,-25.54 -62.88,-74.58 -126.21,-74.58 -58.85,0 -74.78,51.63 -114.74,51.63 -70.67,0 -117.37,-196.98 -351.07,176.72 -30.13,48.18 -56.79,89.06 -89.77,133.96 -24.58,33.47 -90.13,106.17 -92.68,136.79 -95.52,0 -179.2,-9.24 -253.69,-27.41 -47.7,-11.64 -178.99,-53.57 -199.52,-81.58 87.86,-20.47 269.96,-149.95 351.61,-210.6 48.32,-35.9 105.05,-88.74 148.96,-132.15 48.19,-47.63 101.8,-116.74 101.8,-196.51 0,-166.74 -380.18,-195.12 -536.88,-226.12 -31.77,-6.28 -66.86,-18.29 -94.17,-20.57 1.48,-66.33 3.42,-112.52 -23.68,-182.84 -37.79,-98.06 -108.85,-188.62 -200.24,-241.5 -36.61,-21.18 -110.93,-57.55 -166.19,-57.55 60.54,-114.4 100.44,-176.08 199.24,-271.18l132.31 -102.9c52.94,-33.35 49.7,-58.91 171.93,54.18l86.66 91.18c142.76,191.3 45.43,236.32 139.76,330.66 45.76,45.76 106.22,58.69 176.52,58.69zm-413.05 -619.58c27.78,-6.47 53.83,-17.18 82.4,-26.6l181.8 -36.21c16.81,-1.24 33.56,0.72 50.49,-1.15 143.47,-15.88 296.72,27.77 410.66,72.93 60.03,23.79 158.71,78.94 208.04,118.96 71.59,58.08 103.44,82.68 165.67,161.33 21.41,27.06 80.3,104.66 88.47,135.26 -311.43,0 -521.55,97.53 -803.16,97.53 -153.21,0 -58.94,-105.83 -167.39,-285.82l-97.88 -125.86c-20.42,-20.37 -38.9,-35.14 -60.39,-54.34 -39.46,-35.27 -41.4,-23.09 -58.71,-56.03z"/>
   <path class="fil0" d="M464.68 1285.05c-114.47,0 -212.26,-99.52 -212.26,-189.32 0,-70.01 7.22,-115.12 55.85,-167.89 104.1,-112.96 362.94,-79.56 362.94,156.42 0,106.65 -100.45,200.79 -206.53,200.79zm-309.79 -212.26c0,131.12 85.91,233.4 175.74,277.47 174.39,85.55 377.04,-19.77 425.61,-198.16 52.77,-193.84 -99.91,-383.35 -280.09,-383.35l-28.68 0c-156.05,0 -292.58,145.89 -292.58,304.05z"/>
  </g>
 </g>
</svg>
