<?xml version="1.0" encoding="UTF-8"?>
<!DOCTYPE svg PUBLIC "-//W3C//DTD SVG 1.1//EN" "http://www.w3.org/Graphics/SVG/1.1/DTD/svg11.dtd">
<!-- Creator: CorelDRAW -->
<svg xmlns="http://www.w3.org/2000/svg" xml:space="preserve" width="93.6055mm" height="135.45mm" version="1.1" style="shape-rendering:geometricPrecision; text-rendering:geometricPrecision; image-rendering:optimizeQuality; fill-rule:evenodd; clip-rule:evenodd"
viewBox="0 0 3830.82 5543.29"
 xmlns:xlink="http://www.w3.org/1999/xlink"
 xmlns:xodm="http://www.corel.com/coreldraw/odm/2003">
 <defs>
  <style type="text/css">
   <![CDATA[
    .fil0 {fill:black}
   ]]>
  </style>
 </defs>
 <g id="Capa_x0020_1">
  <metadata id="CorelCorpID_0Corel-Layer"/>
  <g id="_2936538636224">
   <path class="fil0" d="M1890.25 1743.11c180.03,0 287.97,42.17 408.96,164.86 263.07,266.78 132.98,622.2 -40.7,885.48 -84.27,127.76 -169.77,224.45 -284.68,321.78 -27.22,23.05 -52.97,38.21 -83.28,25.24 -67.24,-28.78 -196.37,-174.92 -246.26,-241.96 -118.56,-159.31 -300.93,-418.54 -262.58,-689.46 36.05,-254.72 250.42,-465.94 508.54,-465.94zm57.74 -1743.11l95.69 0c124.36,27.87 215.52,156.38 260.82,202.88 72.69,74.61 138.84,175.54 191.56,263.16 37.55,62.41 70.12,129.82 113.04,190.1 49.42,69.4 120.57,87.28 204.36,98.79 83.32,11.44 193.6,25.24 278.3,24.85 109.68,-0.52 465.8,-24.53 465.8,140.5 0,61.27 -29.08,90.55 -54.26,140.62 -14.55,28.93 -43.18,78.16 -43.18,119.22 0,79.25 131.55,280.77 -61.5,349.92 -157.06,56.26 -263.31,-58.98 -387.05,35.2 -108.77,82.8 -226.88,54.66 -298.01,167.54 -127.87,202.94 -127.38,184.76 -80.66,307.03 58.36,152.76 52.07,392.45 -17.27,536.96 44.39,29.72 78.13,69.58 113,114.36l88.49 128.07c68.68,104.4 236.81,-36.72 329.02,-36.72 245.84,0 151.57,269.93 151.57,422.24 317.07,0 305.65,131.37 357.37,205.62 13.66,19.62 44.66,39.17 67.91,62.01 210.58,206.95 59.38,586.34 -7.72,821.19 -53.78,188.24 -54.16,173.69 -3.01,326.35 13.02,38.87 18.52,74.16 18.52,122.23l-32.9 421.82c-20.93,94.79 -81.46,181.96 -194.46,184.48 -8.08,97.12 -91.23,194.88 -194.88,194.88 -141.84,0 -231.59,-62.94 -333.58,-131.97 -35,-23.69 -47.12,-39.21 -77.86,-62.89 -55.31,-42.62 -97.23,-102.42 -151.23,-141.09 -114.08,-81.7 -261.7,-124.95 -386.61,-187.21 -87.79,-43.76 -92.11,-69 -161.08,-120.41 -245.64,-183.09 -680.14,-359.73 -718.84,-699.47 -12.99,-114 -3.56,-141.24 -58.87,-222.63 -77.79,-114.46 -166.04,-219.34 -226.95,-346.87 -35.36,-74.04 -45.53,-135.33 -70.6,-210.89 -12.71,-38.3 -77.17,-177.88 -77.17,-204.32 0,-51.33 52.85,-108.27 108.27,-108.27 90.4,0 113.31,77.86 143.79,148.53 31.03,71.92 42.91,124.16 68.5,202.17 51.17,155.98 120.75,219.54 201.4,339.94 187.78,280.33 89.43,241.27 140.36,400.98 60.02,188.23 272.16,284.86 424.64,387.36 60.05,40.37 105.01,63.87 162.89,107.78 53.04,40.25 92.05,89.39 150.11,120.57 179.87,96.6 370.24,143.32 519.09,292.91 72.55,72.91 211.54,193.48 322.1,219.24 0,-127.6 67.28,-194.88 194.88,-194.88 0,-116.73 21.54,-225.28 31.37,-326.79 4.7,-48.55 -10.8,-119.31 -27.46,-153.5 -127.7,-262.17 115.18,-576.06 115.18,-851.4 0,-125.84 -0.07,-137.05 -89.28,-213.87 -59,-50.81 -54.76,-82.6 -83.95,-143.41 -167.86,-39.11 -447.05,66.83 -335.63,-411.42 -132.73,63.68 -346.7,66.53 -439.67,-58.36l-123.32 -179.82 -190.15 264.57c-28.05,36.11 -46.07,48.76 -71.3,80.28 -60.7,75.84 -231.88,239.8 -355.68,239.8 -258.09,0 -1182.65,-988.48 -522.56,-1648.54 110.53,-110.53 304.87,-213.66 522.56,-213.66 302.54,0 391.33,126.91 541.34,227.36 203.28,-384.18 247.01,-245.22 411.22,-346.65 164.65,-101.71 109.53,-86.42 303.35,-86.42 54.41,0 48.48,9.73 97.44,10.82 -45.62,-195.82 -34.07,-121.29 10.82,-313.97 -178.47,0 -340.28,-11.49 -497.56,-32.96 -142.96,-19.51 -260.77,-64.07 -342.39,-177.3 -72.19,-100.14 -128.87,-220.26 -199.45,-320.23l-175.44 -214.41c-5.98,-6.17 -27.91,-27.51 -34.92,-31.52 -31.24,-17.86 -60.59,-9.72 -69.55,31.17 -19.29,88.01 117.47,257.64 -123.36,515.16 -233.78,249.97 -220.42,230.88 -552.05,314.09 -289.36,72.61 -217.29,615.28 -472.53,605.41 -210.03,-8.13 -328.87,-429.16 -502.31,-259.4 -200.81,196.55 13.87,169.52 13.87,295.37 0,60.12 -31.58,171.02 -21.65,194.88 24.23,58.29 28.52,25.03 88.93,62.64 92.31,57.47 326.94,261.62 361.96,353.53 24.87,65.26 -12.59,157.65 -93.62,157.65 -85.8,0 -120.62,-79.4 -164.97,-127.35 -192,-207.58 -146.38,-126.68 -322.6,-251.22 -48.7,-34.42 -97.07,-102.81 -97.07,-184.42 0,-101.55 43.69,-123.63 -18.35,-198.04 -108.44,-130.03 -32,-330.34 64.15,-427.42 370.18,-373.76 552.52,82.67 679.59,116.6 4.77,-57.35 39.46,-136.76 60.2,-188.81 67.18,-168.58 173.35,-314.5 361.82,-363.57 278.54,-72.52 286.58,-42.99 467.58,-268.64 137.42,-171.32 41.5,-181.08 41.5,-337.44 0,-63.92 42.16,-150.58 73.97,-185.87 12.26,-13.6 55.01,-45.53 73.75,-56.17 24.95,-14.16 49.1,-23.39 72.42,-28.63z"/>
   <path class="fil0" d="M1911.9 2176.18c52.45,0 108.27,55.81 108.27,108.27 0,166.77 -271.13,105.2 -205.25,-41.83 13.33,-29.74 54.71,-66.43 96.98,-66.43zm-324.8 75.79c0,112.76 7.79,177.57 99.78,268.33 200.75,198.09 549.82,37.47 549.82,-203.37l0 -64.96c0,-139.53 -152.79,-292.32 -292.32,-292.32l-64.96 0c-139.54,0 -292.32,152.79 -292.32,292.32z"/>
   <path class="fil0" d="M818.4 2782.47c0,144.87 216.53,177.14 216.53,-21.65 0,-103.63 -216.53,-124.3 -216.53,21.65z"/>
  </g>
 </g>
</svg>
